HIERARCHY
ROOT Hips
{
	OFFSET -0.179506 -22.333345 2.821913
	CHANNELS 6 Xposition Yposition Zposition Zrotation Yrotation Xrotation 
	JOINT LeftUpLeg
	{
		OFFSET 6.951974 -9.140623 -0.681533
		CHANNELS 3 Zrotation Yrotation Xrotation
		JOINT LeftLeg
		{
			OFFSET 3.427654 -37.519855 -0.449580
			CHANNELS 3 Zrotation Yrotation Xrotation
			JOINT LeftFoot
			{
				OFFSET -1.359570 -39.796059 -4.369333
				CHANNELS 3 Zrotation Yrotation Xrotation
				JOINT LeftToe
				{
					OFFSET 2.635814 -5.579078 11.928840
					CHANNELS 3 Zrotation Yrotation Xrotation
					End Site
					{
						OFFSET 0.000000 0.000000 0.000000
					}
				}
			}
		}
	}
	JOINT RightUpLeg
	{
		OFFSET -6.767048 -9.052170 -0.431982
		CHANNELS 3 Zrotation Yrotation Xrotation
		JOINT RightLeg
		{
			OFFSET -3.829005 -38.256897 -0.885003
			CHANNELS 3 Zrotation Yrotation Xrotation
			JOINT RightFoot
			{
				OFFSET 1.577377 -39.841461 -4.231180
				CHANNELS 3 Zrotation Yrotation Xrotation
				JOINT RightToe
				{
					OFFSET -2.537174 -4.814398 12.334795
					CHANNELS 3 Zrotation Yrotation Xrotation
					End Site
					{
						OFFSET 0.000000 0.000000 0.000000
					}
				}
			}
		}
	}
	JOINT Spine
	{
		OFFSET -0.253288 10.896323 -2.669631
		CHANNELS 3 Zrotation Yrotation Xrotation
		JOINT Spine1
		{
			OFFSET 0.548704 13.518043 0.109247
			CHANNELS 3 Zrotation Yrotation Xrotation
			JOINT Spine2
			{
				OFFSET 0.145701 5.292222 2.542457
				CHANNELS 3 Zrotation Yrotation Xrotation
				JOINT Neck
				{
					OFFSET -0.277840 21.387037 -4.285703
					CHANNELS 3 Zrotation Yrotation Xrotation
					JOINT Head
					{
						OFFSET 0.515184 6.496960 5.134897
						CHANNELS 3 Zrotation Yrotation Xrotation
						End Site
						{
							OFFSET 0.000000 0.000000 0.000000
						}
					}
				}
				JOINT LeftShoulder
				{
					OFFSET 7.884473 12.174932 -3.408961
					CHANNELS 3 Zrotation Yrotation Xrotation
					JOINT LeftArm
					{
						OFFSET 9.097692 3.046888 -0.886815
						CHANNELS 3 Zrotation Yrotation Xrotation
						JOINT LeftForeArm
						{
							OFFSET 25.961220 -1.277207 -2.745643
							CHANNELS 3 Zrotation Yrotation Xrotation
							JOINT LeftHand
							{
								OFFSET 24.923361 0.898606 -0.117091
								CHANNELS 3 Zrotation Yrotation Xrotation
								End Site
								{
									OFFSET 0.000000 0.000000 0.000000
								}
							}
						}
					}
				}
				JOINT RightShoulder
				{
					OFFSET -8.175920 11.883285 -3.861528
					CHANNELS 3 Zrotation Yrotation Xrotation
					JOINT RightArm
					{
						OFFSET -9.601238 3.255117 -0.914307
						CHANNELS 3 Zrotation Yrotation Xrotation
						JOINT RightForeArm
						{
							OFFSET -25.374195 -1.332924 -2.140099
							CHANNELS 3 Zrotation Yrotation Xrotation
							JOINT RightHand
							{
								OFFSET -25.529810 0.777228 -0.555919
								CHANNELS 3 Zrotation Yrotation Xrotation
								End Site
								{
									OFFSET 0.000000 0.000000 0.000000
								}
							}
						}
					}
				}
			}
		}
	}
}
MOTION
Frames: 6
Frame Time: 0.033333
-34.137058 169.897934 90.444115 -146.094625 3.867967 86.616927 13.649305 8.146307 0.762679 -2.024133 3.392506 16.113949 2.694931 13.234919 -27.693740 nan nan nan -16.154088 -11.687225 -18.550864 1.824071 -12.404283 19.001461 6.457864 -4.224875 -1.766325 nan nan nan -3.767214 0.488678 1.083397 9.336759 -4.758792 11.647562 2.354841 0.698150 -8.471815 7.230151 -20.673538 3.497938 -1.464462 -15.457240 20.376141 -23.945849 -9.613807 8.028660 -60.825382 -24.758698 25.967508 162.420854 -67.280555 -133.769714 -6.362937 -17.939006 -7.587412 25.603935 13.188333 2.880700 29.777252 20.197791 -6.333776 -93.218209 50.988402 -81.683074 7.407657 9.249746 -3.095455 
-33.971207 169.847961 90.355980 -146.261423 4.025245 87.429288 13.863705 8.146798 -0.382281 -2.130160 3.826606 16.543025 2.497739 12.867584 -27.371178 nan nan nan -15.785081 -11.240095 -19.779729 1.625373 -12.847221 19.371114 6.403015 -4.229210 -1.756610 nan nan nan -3.809561 0.555720 0.451803 9.518747 -4.639117 11.163438 2.466225 0.621645 -8.181247 6.675560 -20.929778 4.414946 -1.598337 -16.044071 19.251290 -23.808777 -9.510856 7.771039 -61.127150 -24.611917 26.148303 162.109705 -67.319146 -133.190593 -7.148693 -18.449277 -7.806865 25.185484 13.159154 2.711540 30.338758 20.219162 -5.991121 -93.392959 50.739721 -81.161934 7.944386 9.586317 -3.904684 
-33.925854 169.834885 90.327705 -146.336865 4.074241 87.698127 13.925619 8.135982 -0.723550 -2.157070 3.980820 16.638606 2.481815 12.816842 -27.356805 nan nan nan -15.630471 -11.080421 -20.176925 1.505160 -12.944100 19.438049 6.345360 -4.278552 -1.725726 nan nan nan -3.791780 0.553621 0.276971 9.552862 -4.603467 10.983489 2.464517 0.612564 -8.086762 6.758505 -20.873234 4.274437 -1.677055 -16.108893 19.254322 -23.766778 -9.439876 7.677122 -61.146157 -24.654192 26.163999 162.025014 -67.302041 -133.056876 -7.578317 -18.404952 -7.513201 25.157064 13.149424 2.705227 30.454159 20.283116 -5.864294 -93.577483 50.725672 -81.135071 8.263586 9.547200 -3.765983 
-33.935452 169.833221 90.317215 -146.369771 4.087604 87.705045 13.927004 8.086992 -0.666542 -2.157130 3.999578 16.537789 2.466721 12.706883 -27.307651 nan nan nan -15.576765 -11.010451 -20.181955 1.403875 -12.964278 19.409875 6.242694 -4.254234 -1.751322 nan nan nan -3.753156 0.521042 0.322172 9.544603 -4.596654 10.953019 2.470599 0.607293 -8.108055 6.882480 -20.839042 4.180728 -1.820985 -16.137321 19.275996 -23.749921 -9.415279 7.626850 -61.239644 -24.661905 26.149433 161.954091 -67.210429 -132.878329 -8.426689 -18.387044 -6.937389 25.118902 13.220053 2.719456 30.558489 20.333276 -5.791131 -93.821200 50.717314 -81.269394 9.286567 9.639758 -3.442676 
-33.980347 169.852768 90.355453 -146.410737 3.995789 87.554831 13.796038 7.981794 -0.263145 -2.376839 3.930699 16.069602 1.986808 11.728953 -23.501390 nan nan nan -15.671866 -10.973150 -19.911680 1.416570 -12.902936 19.243587 5.746786 -4.152830 -1.908126 nan nan nan -3.959500 0.651276 0.335245 9.514829 -4.556606 11.106666 2.802960 0.607731 -8.147338 7.134034 -21.031099 4.122335 -2.077799 -16.026709 18.961852 -23.921598 -9.835063 7.620685 -61.374068 -24.273047 26.137841 161.735525 -67.160781 -132.558037 -8.024849 -18.467657 -7.222226 25.057739 13.513621 2.717657 30.421909 19.967921 -5.874642 -93.961284 50.278443 -81.787828 9.827520 9.717876 -3.415596 
-34.075207 169.888977 90.459229 -146.472755 3.773934 87.160377 13.487575 8.170032 0.402903 -2.161638 4.319228 15.847476 1.620703 11.522713 -22.836079 nan nan nan -16.002850 -11.034481 -19.301428 1.481924 -12.995521 19.057241 5.688801 -3.671002 -2.061385 nan nan nan -4.312096 0.853409 0.461528 9.508216 -4.478839 11.550354 3.101701 0.517049 -8.172845 7.440162 -20.479482 4.155921 -1.952299 -17.100308 17.815821 -24.070421 -10.206433 7.092689 -61.850369 -24.717360 26.349055 161.354420 -67.722109 -133.158508 -11.732357 -22.299759 -6.968966 25.243819 13.973592 2.413114 30.117965 19.461412 -6.024679 -94.239839 50.056584 -81.842473 11.797359 9.987125 -2.002070 
